Coordinates
version=1
nRows=16
nColumns=22
inDegrees=yes

Units are S.I. units (second, meters, Newtons, ...)
If the header above contains a line with 'inDegrees', this indicates whether rotational values are in degrees (yes) or radians (no).

endheader
time	pelvis_tilt	pelvis_list	pelvis_rotation	pelvis_tx	pelvis_ty	pelvis_tz	hip_flexion_r	hip_adduction_r	hip_rotation_r	knee_angle_r	ankle_angle_r	subtalar_angle_r	hip_flexion_l	hip_adduction_l	hip_rotation_l	knee_angle_l	ankle_angle_l	subtalar_angle_l	lumbar_extension	lumbar_bending	lumbar_rotation
      0.01000000	     -8.64090220	      2.94968670	    -34.06176736	     -1.74314180	      0.88134561	     -0.46311707	     13.55975452	     -1.43878907	     -1.37178533	    -15.16826961	     14.89530312	      2.44503106	     11.44311820	     -8.16045528	     -5.12949055	    -18.18520860	     17.73124321	      8.75639560	      3.93411621	      0.56085473	     11.64109582
      0.02000000	     -8.60594363	      2.96557876	    -34.06836554	     -1.74296416	      0.88130258	     -0.46295792	     13.54530250	     -1.46731478	     -1.34076121	    -15.21707507	     14.98916153	      2.43221467	     11.38666307	     -8.12101517	     -5.11474256	    -18.16477828	     17.76304151	      8.76376271	      3.91548653	      0.52394977	     11.64595868
      0.03000000	     -8.58598112	      2.96016523	    -34.06372772	     -1.74276839	      0.88124271	     -0.46278710	     13.51962230	     -1.46719726	     -1.30428157	    -15.24901857	     15.05217053	      2.41469928	     11.34940794	     -8.11192019	     -5.10786386	    -18.17609939	     17.82451845	      8.74288060	      3.89282761	      0.51261534	     11.62902326
      0.04000000	     -8.57255584	      2.94743211	    -34.06102069	     -1.74253552	      0.88116007	     -0.46260970	     13.48793054	     -1.45706955	     -1.27037911	    -15.27324295	     15.12761803	      2.39116883	     11.31684539	     -8.11061578	     -5.09308179	    -18.19782700	     17.91919239	      8.69801887	      3.87152207	      0.51635224	     11.61422990
      0.05000000	     -8.56953895	      2.92747621	    -34.05474607	     -1.74229479	      0.88105243	     -0.46243990	     13.45666496	     -1.43464632	     -1.23328522	    -15.29249234	     15.20646308	      2.36578714	     11.29718826	     -8.12027874	     -5.06937877	    -18.23099396	     18.04176609	      8.63003101	      3.85080411	      0.53266136	     11.59715389
      0.06000000	     -8.58095340	      2.90209824	    -34.05546118	     -1.74205782	      0.88091778	     -0.46227706	     13.43322189	     -1.39882832	     -1.20214081	    -15.30562526	     15.28386119	      2.33934311	     11.29481627	     -8.14327584	     -5.03959751	    -18.28239865	     18.18450683	      8.53167709	      3.83494058	      0.56782037	     11.57849172
      0.07000000	     -8.60828910	      2.87701623	    -34.05770915	     -1.74184074	      0.88075503	     -0.46213801	     13.42509090	     -1.35433207	     -1.16521225	    -15.31824727	     15.35950466	      2.32208321	     11.31516823	     -8.17488032	     -5.00077166	    -18.34765628	     18.33616362	      8.42900233	      3.82568491	      0.61295057	     11.56463306
      0.08000000	     -8.64873561	      2.85395536	    -34.06738164	     -1.74165497	      0.88057596	     -0.46202013	     13.43488285	     -1.30447387	     -1.12913747	    -15.33409274	     15.42938305	      2.31651977	     11.35606740	     -8.21335541	     -4.95872366	    -18.42757401	     18.48111588	      8.33462395	      3.81948590	      0.66534086	     11.56592619
      0.09000000	     -8.70416762	      2.83280166	    -34.08766656	     -1.74149283	      0.88037573	     -0.46191426	     13.46403984	     -1.24780807	     -1.10009624	    -15.35295919	     15.49527166	      2.32179570	     11.41715156	     -8.26174071	     -4.92034598	    -18.52305192	     18.62337821	      8.24321268	      3.82009805	      0.72713305	     11.58747447
      0.10000000	     -8.79128227	      2.82880569	    -34.11364259	     -1.74136980	      0.88013279	     -0.46183874	     13.54006910	     -1.18892979	     -1.07686838	    -15.37817020	     15.52946754	      2.34429784	     11.52926585	     -8.31488781	     -4.88184952	    -18.63868023	     18.73890619	      8.09797293	      3.85005615	      0.79317468	     11.62543271
      0.11000000	     -8.83660198	      2.81230046	    -34.15709342	     -1.74119352	      0.87995197	     -0.46172669	     13.56695718	     -1.14347097	     -1.05030260	    -15.40031444	     15.60685273	      2.35936902	     11.56383473	     -8.35552984	     -4.86205970	    -18.70786139	     18.86962665	      8.06265260	      3.83011891	      0.84613756	     11.67387951
      0.12000000	     -8.89854083	      2.79749516	    -34.21001726	     -1.74102496	      0.87974972	     -0.46160521	     13.61314793	     -1.08749223	     -1.01189665	    -15.42642840	     15.65853779	      2.38327728	     11.61886954	     -8.40982484	     -4.86220839	    -18.78768594	     18.99997313	      8.01491121	      3.82025738	      0.90674627	     11.73920953
      0.13000000	     -8.95313059	      2.79241724	    -34.27096445	     -1.74079830	      0.87955900	     -0.46146481	     13.65606949	     -1.04590238	     -0.96818007	    -15.45212872	     15.69987388	      2.40860192	     11.65746266	     -8.45145628	     -4.87577288	    -18.84679508	     19.11316783	      7.96827714	      3.81121696	      0.95568259	     11.80939623
      0.14000000	     -8.99538488	      2.79388184	    -34.33903871	     -1.74051579	      0.87938894	     -0.46130610	     13.68966270	     -1.01804354	     -0.91845441	    -15.47779318	     15.73842340	      2.43429111	     11.67247176	     -8.47994710	     -4.90716125	    -18.88275884	     19.21383502	      7.92518980	      3.79324822	      0.99074869	     11.88695106
      0.15000000	     -9.02456369	      2.80499857	    -34.42057464	     -1.74016627	      0.87924157	     -0.46110851	     13.71399595	     -1.00568941	     -0.86137292	    -15.50287691	     15.77450193	      2.46266773	     11.66275176	     -8.49319472	     -4.95995604	    -18.89897995	     19.29775747	      7.88385179	      3.77210333	      1.00991744	     11.97371379
      0.16000000	     -9.04007621	      2.83038321	    -34.51290085	     -1.73976066	      0.87911833	     -0.46088087	     13.73232924	     -1.01273332	     -0.79382632	    -15.52624225	     15.80946879	      2.49767594	     11.63028677	     -8.48600312	     -5.03927512	    -18.89177350	     19.35420349	      7.84153834	      3.74691272	      1.00674795	     12.06964585
